<svg xmlns="http://www.w3.org/2000/svg" xmlns:xlink="http://www.w3.org/1999/xlink" width="384" viewBox="0 0 384 383.999986" height="383.999986" preserveAspectRatio="xMidYMid meet"><defs><clipPath id="clip-0"><path d="M 2.792969 0 L 381.542969 0 L 381.542969 384 L 2.792969 384 Z M 2.792969 0 " clip-rule="nonzero"></path></clipPath></defs><path fill="rgb(91.369629%, 12.548828%, 30.979919%)" d="M 234.753906 191.996094 C 234.753906 193.496094 234.679688 194.988281 234.53125 196.476562 C 234.386719 197.964844 234.164062 199.445312 233.875 200.914062 C 233.582031 202.382812 233.21875 203.832031 232.78125 205.261719 C 232.347656 206.695312 231.84375 208.101562 231.269531 209.484375 C 230.699219 210.867188 230.058594 212.21875 229.351562 213.539062 C 228.644531 214.859375 227.875 216.140625 227.042969 217.386719 C 226.210938 218.628906 225.320312 219.832031 224.371094 220.988281 C 223.417969 222.144531 222.414062 223.253906 221.355469 224.3125 C 220.296875 225.367188 219.1875 226.371094 218.03125 227.320312 C 216.871094 228.273438 215.671875 229.164062 214.425781 229.992188 C 213.179688 230.824219 211.894531 231.59375 210.574219 232.300781 C 209.253906 233.003906 207.902344 233.644531 206.515625 234.214844 C 205.132812 234.789062 203.726562 235.292969 202.292969 235.726562 C 200.859375 236.160156 199.40625 236.523438 197.9375 236.816406 C 196.46875 237.109375 194.988281 237.328125 193.496094 237.476562 C 192.007812 237.621094 190.511719 237.695312 189.015625 237.695312 C 187.515625 237.695312 186.023438 237.621094 184.53125 237.476562 C 183.039062 237.328125 181.558594 237.109375 180.089844 236.816406 C 178.621094 236.523438 177.171875 236.160156 175.738281 235.726562 C 174.304688 235.292969 172.894531 234.789062 171.511719 234.214844 C 170.128906 233.644531 168.773438 233.003906 167.453125 232.300781 C 166.132812 231.59375 164.847656 230.824219 163.605469 229.992188 C 162.359375 229.164062 161.15625 228.273438 160 227.320312 C 158.839844 226.371094 157.730469 225.367188 156.671875 224.3125 C 155.613281 223.253906 154.609375 222.144531 153.660156 220.988281 C 152.707031 219.832031 151.816406 218.628906 150.984375 217.386719 C 150.152344 216.140625 149.382812 214.859375 148.675781 213.539062 C 147.972656 212.21875 147.332031 210.867188 146.757812 209.484375 C 146.183594 208.101562 145.679688 206.695312 145.246094 205.261719 C 144.8125 203.832031 144.449219 202.382812 144.15625 200.914062 C 143.863281 199.445312 143.644531 197.964844 143.496094 196.476562 C 143.351562 194.988281 143.277344 193.496094 143.277344 191.996094 C 143.277344 190.5 143.351562 189.007812 143.496094 187.519531 C 143.644531 186.03125 143.863281 184.550781 144.15625 183.082031 C 144.449219 181.613281 144.8125 180.164062 145.246094 178.734375 C 145.679688 177.300781 146.183594 175.894531 146.757812 174.511719 C 147.332031 173.128906 147.972656 171.777344 148.675781 170.457031 C 149.382812 169.136719 150.152344 167.855469 150.984375 166.609375 C 151.816406 165.367188 152.707031 164.164062 153.660156 163.007812 C 154.609375 161.851562 155.613281 160.742188 156.671875 159.683594 C 157.730469 158.628906 158.839844 157.625 160 156.675781 C 161.15625 155.722656 162.359375 154.832031 163.605469 154.003906 C 164.847656 153.171875 166.132812 152.402344 167.453125 151.695312 C 168.773438 150.992188 170.128906 150.351562 171.511719 149.78125 C 172.894531 149.207031 174.304688 148.703125 175.738281 148.269531 C 177.171875 147.835938 178.621094 147.472656 180.089844 147.179688 C 181.558594 146.886719 183.039062 146.667969 184.53125 146.519531 C 186.023438 146.375 187.515625 146.300781 189.015625 146.300781 C 190.511719 146.300781 192.007812 146.375 193.496094 146.519531 C 194.988281 146.667969 196.46875 146.886719 197.9375 147.179688 C 199.40625 147.472656 200.859375 147.835938 202.292969 148.269531 C 203.726562 148.703125 205.132812 149.207031 206.515625 149.78125 C 207.902344 150.351562 209.253906 150.992188 210.574219 151.695312 C 211.894531 152.402344 213.179688 153.171875 214.425781 154.003906 C 215.671875 154.832031 216.871094 155.722656 218.03125 156.675781 C 219.1875 157.625 220.296875 158.628906 221.355469 159.683594 C 222.414062 160.742188 223.417969 161.851562 224.371094 163.007812 C 225.320312 164.164062 226.210938 165.367188 227.042969 166.609375 C 227.875 167.855469 228.644531 169.136719 229.351562 170.457031 C 230.058594 171.777344 230.699219 173.128906 231.269531 174.511719 C 231.84375 175.894531 232.347656 177.300781 232.78125 178.734375 C 233.21875 180.164062 233.582031 181.613281 233.875 183.082031 C 234.164062 184.550781 234.386719 186.03125 234.53125 187.519531 C 234.679688 189.007812 234.753906 190.5 234.753906 191.996094 Z M 234.753906 191.996094 " fill-opacity="1" fill-rule="nonzero"></path><g clip-path="url(#clip-0)"><path fill="rgb(91.369629%, 12.548828%, 30.979919%)" d="M 189.015625 0.105469 C 99.515625 0.105469 24.324219 61.269531 2.996094 144.023438 C 2.796875 144.769531 2.691406 145.527344 2.679688 146.300781 C 2.679688 151.324219 6.765625 155.441406 11.824219 155.441406 L 89.277344 155.441406 C 90.15625 155.445312 91.015625 155.320312 91.855469 155.074219 C 92.695312 154.828125 93.484375 154.46875 94.222656 153.992188 C 94.957031 153.515625 95.609375 152.945312 96.179688 152.28125 C 96.75 151.617188 97.214844 150.882812 97.570312 150.085938 C 97.570312 150.085938 97.6875 149.867188 97.738281 149.75 C 113.707031 115.335938 148.570312 91.449219 189.046875 91.449219 C 244.621094 91.449219 289.671875 136.441406 289.671875 191.964844 C 289.671875 247.488281 244.636719 292.480469 189.066406 292.480469 C 148.605469 292.480469 113.738281 268.59375 97.757812 234.179688 C 97.707031 234.0625 97.589844 233.84375 97.589844 233.84375 C 96.113281 230.597656 92.863281 228.488281 89.296875 228.488281 L 11.84375 228.488281 C 6.78125 228.488281 2.695312 232.574219 2.695312 237.628906 C 2.703125 238.398438 2.808594 239.160156 3.011719 239.90625 C 24.339844 322.660156 99.546875 383.824219 189.03125 383.824219 C 295.117188 383.808594 381.265625 297.90625 381.265625 191.929688 C 381.265625 85.957031 295.265625 0.0390625 189.199219 0.0390625 Z M 189.015625 0.105469 " fill-opacity="1" fill-rule="nonzero"></path></g></svg>